# Blender v2.75 (sub 0) OBJ File: 'house.blend'
# www.blender.org
mtllib house.mtl
o Cube.003_Cube.009
v 2.232059 2.819557 -2.116427
v -2.232869 2.819557 -2.116427
v 2.232059 4.227179 -0.080663
v 2.232059 2.992715 -2.216508
v -2.232869 4.227179 -0.080663
v -2.232869 2.992715 -2.216508
v 2.432059 2.819557 -2.116427
v 2.432059 4.227179 -0.080663
v 2.432059 2.992715 -2.216508
v -2.432868 2.819557 -2.116427
v -2.432868 4.227179 -0.080663
v -2.432868 2.992715 -2.216508
v -2.232869 2.719476 -2.289585
v 2.232059 2.719476 -2.289585
v -2.232869 2.892634 -2.389666
v 2.232059 2.892634 -2.389666
v 2.432059 2.719476 -2.289585
v 2.432059 2.892634 -2.389666
v -2.432868 2.719476 -2.289585
v -2.432868 2.892634 -2.389666
v 2.232059 4.154101 0.192576
v -2.232869 4.154101 0.192576
v -2.432868 4.154101 0.192576
v 2.232059 2.819557 2.155263
v 2.232059 4.054020 0.019418
v -2.232869 2.819557 2.155263
v -2.232869 4.054020 0.019418
v 2.232059 4.227179 0.119499
v 2.232059 2.992715 2.255344
v -2.232869 4.227179 0.119499
v -2.232869 2.992715 2.255344
v 2.432059 4.054020 0.019418
v 2.432059 2.819557 2.155263
v 2.432059 4.227179 0.119499
v 2.432059 2.992715 2.255344
v -2.432868 4.054020 0.019418
v -2.432868 2.819557 2.155263
v -2.432868 4.227179 0.119499
v -2.432868 2.992715 2.255344
v -2.232869 2.719476 2.328421
v 2.232059 2.719476 2.328421
v -2.232869 2.892634 2.428502
v 2.232059 2.892634 2.428502
v 2.432059 2.719476 2.328421
v 2.432059 2.892634 2.428502
v -2.432868 2.719476 2.328421
v -2.432868 2.892634 2.428502
v 2.232059 4.154101 -0.153740
v -2.232869 4.154101 -0.153740
v -2.432868 4.154101 -0.153740
v -2.232869 4.285023 0.019418
v -2.432868 4.285023 0.019418
v -2.232869 4.285023 0.019418
v 2.432059 4.285023 0.019418
v 2.232059 4.285023 0.019418
v 2.232059 4.285023 0.019418
v -2.432868 4.285023 0.019418
v 2.432059 4.285023 0.019418
vt 1.515459 1.879955
vt 1.515458 -1.187252
vt 2.184789 -1.187252
vt 2.184791 1.879955
vt 2.942540 1.879955
vt 2.270545 1.879955
vt 2.270543 -1.187252
vt 2.942539 -1.187252
vt 2.270545 2.017346
vt 2.239057 2.017346
vt 2.239057 1.879955
vt 2.270543 -1.324643
vt 2.942539 -1.324643
vt -0.926438 1.231550
vt -0.964946 1.158584
vt -0.898321 1.116413
vt -0.859813 1.189378
vt -1.825254 2.411418
vt -1.786745 2.338452
vt -1.748238 2.411418
vt -1.786745 2.435792
vt -2.608546 1.818274
vt -2.647053 1.891239
vt 2.942541 2.017346
vt 2.184791 2.017346
vt 1.515459 2.017346
vt 2.997019 -1.324643
vt 2.997019 -1.187252
vt -1.786745 1.678762
vt -1.748238 1.751728
vt 1.515458 -1.324642
vt 2.184789 -1.324642
vt 2.997021 1.879955
vt 2.997021 2.017346
vt 2.239056 -1.187252
vt 3.066131 -1.187252
vt 3.066132 1.879955
vt 3.066132 2.017346
vt 3.066131 -1.324643
vt 1.461195 2.017346
vt 1.461195 1.879955
vt 1.461193 -1.187252
vt 1.461193 -1.324642
vt -2.713678 1.849068
vt -2.675171 1.776102
vt 2.239055 -1.324643
vt 0.837975 1.879955
vt 0.434777 1.879955
vt 0.434776 -1.187252
vt 0.837973 -1.187252
vt 1.341142 -1.187251
vt 1.341142 1.879955
vt 0.891722 1.879955
vt 0.891722 -1.187251
vt 0.870663 -1.187251
vt 0.870663 -1.324642
vt 0.891722 -1.324642
vt 1.341142 2.017346
vt 0.891722 2.017346
vt -2.647053 1.231550
vt -2.713678 1.189378
vt -2.675171 1.116413
vt -2.608546 1.158584
vt -1.786745 1.776102
vt -1.825254 1.751728
vt -0.964946 1.818274
vt -0.926438 1.891239
vt 1.341142 -1.324642
vt 0.837975 2.017346
vt 0.434777 2.017346
vt 1.377577 1.879955
vt 1.377577 2.017346
vt 0.434775 -1.324643
vt 0.837973 -1.324643
vt 1.377577 -1.324642
vt 1.377577 -1.187251
vt 0.870663 1.879955
vt 0.870663 2.017346
vt -0.898321 1.776102
vt -0.859813 1.849068
vt 0.402089 1.879955
vt 0.402087 -1.187252
vn 0.000000 0.865800 -0.500400
vn 0.000000 -0.865800 0.500400
vn 1.000000 -0.000000 0.000000
vn -1.000000 -0.000000 0.000000
vn 0.000000 0.500400 0.865800
vn 0.000000 0.865800 0.500400
vn 0.000000 -0.865800 -0.500400
vn 0.000000 0.500400 -0.865800
usemtl Mat_Roof
s off
f 1/1/1 2/2/1 27/3/1 25/4/1
f 4/5/2 3/6/2 5/7/2 6/8/2
f 3/6/2 8/9/2 54/10/2 55/11/2
f 6/8/2 5/7/2 11/12/2 12/13/2
f 12/14/3 10/15/3 19/16/3 20/17/3
f 8/18/4 32/19/4 34/20/4 58/21/4 54/21/4
f 7/22/4 32/19/4 8/18/4 9/23/4
f 3/6/2 4/5/2 9/24/2 8/9/2
f 1/1/1 25/4/1 32/25/1 7/26/1
f 6/8/2 12/13/2 20/27/2 15/28/2
f 36/29/3 10/15/3 12/14/3 11/30/3
f 27/3/1 2/2/1 10/31/1 36/32/1
f 9/24/2 4/5/2 16/33/2 18/34/2
f 5/7/2 3/6/2 55/11/2 51/35/2
f 13/36/5 14/37/5 16/33/5 15/28/5
f 16/33/5 14/37/5 17/38/5 18/34/5
f 13/36/5 15/28/5 20/27/5 19/39/5
f 1/1/1 7/26/1 17/40/1 14/41/1
f 4/5/2 6/8/2 15/28/2 16/33/2
f 10/31/1 2/2/1 13/42/1 19/43/1
f 7/22/4 9/23/4 18/44/4 17/45/4
f 2/2/1 1/1/1 14/41/1 13/42/1
f 25/4/1 27/3/1 22/35/1 21/11/1
f 11/12/2 5/7/2 51/35/2 52/46/2
f 24/47/6 25/48/6 27/49/6 26/50/6
f 29/51/7 31/52/7 30/53/7 28/54/7
f 28/54/7 56/55/7 58/56/7 34/57/7
f 31/52/7 39/58/7 38/59/7 30/53/7
f 39/60/3 47/61/3 46/62/3 37/63/3
f 36/29/3 11/30/3 52/64/3 57/64/3 38/65/3
f 33/66/4 35/67/4 34/20/4 32/19/4
f 28/54/7 34/57/7 35/68/7 29/51/7
f 24/47/6 33/69/6 32/70/6 25/48/6
f 31/52/7 42/71/7 47/72/7 39/58/7
f 36/29/3 38/65/3 39/60/3 37/63/3
f 27/49/6 36/73/6 37/74/6 26/50/6
f 35/68/7 45/75/7 43/76/7 29/51/7
f 30/53/7 53/77/7 56/55/7 28/54/7
f 40/41/8 42/71/8 43/76/8 41/42/8
f 43/76/8 45/75/8 44/43/8 41/42/8
f 40/41/8 46/40/8 47/72/8 42/71/8
f 24/47/6 41/77/6 44/78/6 33/69/6
f 29/51/7 43/76/7 42/71/7 31/52/7
f 37/74/6 46/56/6 40/55/6 26/50/6
f 33/66/4 44/79/4 45/80/4 35/67/4
f 26/50/6 40/55/6 41/77/6 24/47/6
f 25/48/6 48/81/6 49/82/6 27/49/6
f 38/59/7 57/78/7 53/77/7 30/53/7
l 23 22
l 50 49
o Cube.001_Cube.007
v 1.955148 2.819557 -2.116427
v 1.955148 4.054020 0.019418
v 1.955148 2.819557 2.155263
v 2.232058 2.819557 -2.116427
v 2.232058 2.819557 2.155263
v 2.232058 4.054020 0.019418
v -2.233591 -0.021391 2.160381
v -2.233591 2.821282 2.160381
v -2.233591 -0.021391 1.880163
v -2.233591 2.821282 1.880163
v 2.233590 -0.021390 2.160381
v 2.233590 2.821282 2.160381
v 2.233590 -0.021390 1.880164
v 2.233590 2.821282 1.880164
v -2.233591 -0.021391 -1.839618
v -2.233591 2.821282 -1.839618
v -2.233591 -0.021391 -2.119836
v -2.233591 2.821282 -2.119836
v 2.233590 -0.021390 -1.839618
v 2.233590 2.821282 -1.839618
v 2.233590 -0.021390 -2.119836
v 2.233590 2.821282 -2.119836
v 2.234427 -0.021390 -1.839153
v 2.234427 2.821282 -1.839153
v 1.954209 -0.021390 -1.839153
v 1.954209 2.821282 -1.839153
v 2.234427 -0.021390 -0.112251
v 2.234427 2.821282 -0.112251
v 1.954209 -0.021390 -0.112251
v 1.954209 2.821282 -0.112251
v -1.954406 -0.021391 1.895186
v -1.954406 2.821282 1.895186
v -2.234624 -0.021391 1.895186
v -2.234624 2.821282 1.895186
v -1.954406 -0.021391 -1.854641
v -1.954406 2.821282 -1.854641
v -2.234624 -0.021391 -1.854641
v -2.234624 2.821282 -1.854641
v 2.234427 -0.021390 1.227092
v 2.234427 2.821282 1.227092
v 1.954209 -0.021390 1.227092
v 1.954209 2.821282 1.227092
v 2.234427 -0.021390 1.884939
v 2.234427 2.821282 1.884939
v 1.954209 -0.021390 1.884939
v 1.954209 2.821282 1.884939
v -2.227485 2.821922 -2.112336
v -2.227485 4.056385 0.023509
v -2.227485 2.821922 2.159354
v -1.950575 2.821922 -2.112336
v -1.950575 2.821922 2.159354
v -1.950575 4.056385 0.023509
vt 6.775022 -1.305485
vt 5.183884 -1.305485
vt 5.183884 -1.684550
vt 6.775022 -1.684550
vt 5.183884 -0.692145
vt 6.775022 -0.881678
vt 6.775022 -0.502613
vt 2.800668 2.635808
vt 4.691807 2.718031
vt 4.391807 3.036382
vt 2.800668 3.036382
vt 6.001307 -0.792470
vt 5.232941 -1.272941
vt 6.757619 -1.264281
vt 1.846076 1.880851
vt 3.137216 1.798629
vt 3.137216 2.199203
vt 1.546076 2.199203
vt 4.657354 -0.332780
vt 4.657355 0.540116
vt 4.552978 0.540116
vt 4.552978 -0.332780
vt 1.449334 -1.370595
vt 1.449334 -0.664949
vt -0.386516 -0.664948
vt -0.386516 -1.370595
vt 4.761733 -0.332780
vt 4.761733 0.540116
vt 1.439687 0.056164
vt 1.439687 0.761809
vt -0.396163 0.761809
vt -0.396163 0.056163
vt 5.079506 4.051557
vt 5.079508 -2.063614
vt 5.183884 -2.063615
vt 5.183882 4.051557
vt 4.870749 4.051557
vt 4.870749 -2.063615
vt 4.975125 -2.063615
vt 4.975127 4.051557
vt 4.657355 1.413012
vt 4.761733 1.413012
vt 1.445873 -0.652699
vt 1.445873 0.052947
vt -0.389977 0.052947
vt -0.389977 -0.652699
vt 4.552978 1.413012
vt 1.438753 0.774782
vt 1.438753 1.480428
vt -0.397097 1.480429
vt -0.397097 0.774783
vt 4.766372 4.051557
vt 4.766368 -2.063615
vt 1.546076 -2.063615
vt 3.156224 -2.063615
vt 3.156224 -1.198197
vt 1.546076 -1.198197
vt 5.183884 -0.502613
vt 5.827127 -0.502613
vt 5.827129 0.370284
vt 5.183885 0.370284
vt 4.766368 -1.198198
vt 5.827129 1.243180
vt 5.183885 1.243180
vt 6.470373 -0.502613
vt 6.470373 -0.119019
vt 5.827129 -0.119019
vt 5.827127 2.010366
vt 5.827129 2.393959
vt 5.183885 2.393959
vt 5.183884 2.010366
vt 3.156221 -0.332780
vt 3.156222 0.532637
vt 1.546077 0.532637
vt 1.546076 -0.332780
vt 3.156224 0.540116
vt 3.156221 1.398054
vt 1.546077 1.398054
vt 3.156224 1.413012
vt 6.580637 1.243180
vt 6.580637 1.626773
vt 5.183884 1.626773
vt 6.580637 2.010366
vt 6.072167 -0.119019
vt 6.072167 0.753877
vt 5.827129 0.753877
vt 4.766368 -0.332780
vt 6.317206 0.753877
vt 6.317206 -0.119019
vt 6.072166 2.010366
vt 6.072166 2.393959
vt 5.827129 1.137470
vt 6.072167 1.137470
vt 3.156224 2.593225
vt 3.156224 2.214160
vt 4.747362 2.214160
vt 4.747362 2.593225
vt 2.179718 2.975292
vt 1.262848 2.238068
vt 3.096587 2.238068
vt 3.137216 1.398055
vt 1.546077 1.798629
vt 5.993452 -1.744909
vt 5.301954 -2.227242
vt 6.684950 -2.227242
vt 4.747362 1.413012
vt 4.747362 1.813586
vt 3.156224 1.813586
vn 0.000000 1.000000 0.000000
vn 1.000000 0.000000 0.000000
vn 0.000000 -0.865800 -0.500400
vn -1.000000 0.000000 0.000000
vn 0.000000 -0.865800 0.500400
vn -0.000000 0.000000 1.000000
vn 0.000000 0.000000 -1.000000
vn 0.000000 -1.000000 0.000000
usemtl MatBrick
s off
f 59/83/9 61/84/9 63/85/9 62/86/9
f 60/87/10 61/88/10 59/89/10
f 60/90/11 64/91/11 63/92/11 61/93/11
f 64/94/12 62/95/12 63/96/12
f 64/97/13 60/98/13 59/99/13 62/100/13
f 66/101/10 65/102/10 67/103/10 68/104/10
f 68/105/14 67/106/14 71/107/14 72/108/14
f 72/102/12 71/101/12 69/109/12 70/110/12
f 70/111/15 69/112/15 65/113/15 66/114/15
f 65/115/9 69/116/9 71/117/9 67/118/9
f 70/119/16 66/120/16 68/121/16 72/122/16
f 74/123/10 73/102/10 75/110/10 76/124/10
f 76/125/14 75/126/14 79/127/14 80/128/14
f 80/129/12 79/103/12 77/102/12 78/123/12
f 78/130/15 77/131/15 73/132/15 74/133/15
f 73/122/9 77/121/9 79/116/9 75/115/9
f 78/120/16 74/119/16 76/134/16 80/135/16
f 82/136/14 84/137/14 83/138/14 81/139/14
f 84/140/10 88/141/10 87/142/10 83/143/10
f 88/144/15 86/138/15 85/137/15 87/135/15
f 86/145/12 82/146/12 81/143/12 85/142/12
f 81/147/9 83/148/9 87/149/9 85/141/9
f 86/150/16 88/151/16 84/152/16 82/153/16
f 90/154/15 89/155/15 91/156/15 92/157/15
f 92/104/10 91/103/10 95/158/10 96/154/10
f 96/155/14 95/159/14 93/160/14 94/156/14
f 94/161/12 93/158/12 89/103/12 90/129/12
f 89/146/9 93/162/9 95/163/9 91/164/9
f 94/165/16 90/153/16 92/164/16 96/163/16
f 98/139/14 100/138/14 99/154/14 97/157/14
f 100/149/10 104/166/10 103/167/10 99/168/10
f 104/169/15 102/154/15 101/138/15 103/144/15
f 102/170/12 98/167/12 97/166/12 101/171/12
f 97/172/9 99/173/9 103/151/9 101/150/9
f 102/174/16 104/168/16 100/167/16 98/175/16
f 105/176/9 107/177/9 109/178/9 108/179/9
f 106/180/10 107/181/10 105/182/10
f 106/160/11 110/183/11 109/98/11 107/184/11
f 110/185/12 108/186/12 109/187/12
f 110/161/13 106/188/13 105/189/13 108/190/13
