# Blender v2.75 (sub 0) OBJ File: 'Rock.blend'
# www.blender.org
mtllib Rock_B.mtl
o Icosphere
v -0.723607 0.481390 -0.525725
v 0.000000 0.879123 -0.002116
v 0.951058 0.034170 0.309013
v 0.951058 0.034170 -0.309013
v 0.000000 0.034170 1.000000
v 0.587786 0.034170 0.809017
v -0.951058 0.034170 0.309013
v -0.587786 0.034170 0.809017
v -0.587786 0.034170 -0.809017
v -0.951058 0.034170 -0.309013
v 0.587786 0.034170 -0.809017
v 0.000000 0.034170 -1.000000
v 0.688189 0.191973 0.499997
v -0.225769 0.351538 0.807326
v -0.780413 0.310885 0.000000
v -0.262869 0.559908 -0.809012
v 0.688189 0.559906 -0.499997
v 0.525730 0.706051 0.000000
v -0.413855 0.722575 0.309011
v 0.162456 0.884825 -0.499995
vt 0.279643 0.723910
vt 0.125061 0.723908
vt 0.166536 0.614647
vt 0.202352 0.888969
vt 0.754147 0.000000
vt 0.770431 0.155110
vt 0.689745 0.267365
vt 0.537543 0.155110
vt 0.670517 0.020723
vt 0.279644 1.000000
vt 0.125060 1.000000
vt 0.766344 0.501944
vt 0.766344 0.674682
vt 0.632819 0.583114
vt 0.643594 0.749301
vt 0.742901 0.861672
vt 0.653664 0.878467
vt 0.704970 0.991487
vt 0.339387 0.614647
vt 0.339387 0.919934
vt 0.279644 0.766641
vt 0.770431 0.346835
vt 0.000000 0.903559
vt 0.000001 0.732924
vt 0.511195 0.406081
vt 0.474181 0.234005
vt 0.754147 0.501944
vt 0.610213 0.501943
vt 1.000000 0.501944
vt 1.000000 0.693671
vt 0.866126 0.597807
vt 0.982955 0.848778
vt 0.838547 0.848778
vt 0.766344 0.693669
vt 0.000000 0.209085
vt 0.090559 0.056674
vt 0.237090 0.000000
vt 0.383620 0.060714
vt 0.474181 0.215624
vt 0.474181 0.405562
vt 0.383622 0.557973
vt 0.237091 0.614647
vt 0.090561 0.553933
vt 0.000000 0.399022
vt 0.488923 0.843323
vt 0.474181 0.640085
vt 0.526855 0.540772
vn 0.310300 0.944000 0.112100
vn 0.524100 0.848100 -0.077600
vn -0.676600 0.582700 0.450100
vn 0.794700 0.187600 -0.577300
vn -0.303500 0.187600 -0.934200
vn -0.534600 0.330400 -0.777900
vn -0.877900 0.475200 0.059300
vn -0.851200 0.524900 0.000000
vn -0.029500 -0.949900 -0.311300
vn -0.291000 0.336700 0.895500
vn 0.276400 0.447200 -0.850600
vn 0.267800 0.751000 0.603500
vn 0.682600 0.536800 0.495900
vn 0.823500 0.548100 0.145900
vn 0.000000 -1.000000 0.000000
vn -0.802600 0.125600 -0.583100
vn -0.499600 0.858000 -0.119200
usemtl RockMat
s off
f 18/1/1 20/2/1 2/3/1
f 18/1/2 17/4/2 20/2/2
f 7/5/3 8/6/3 14/7/3 19/8/3 15/9/3
f 4/10/4 11/11/4 17/4/4
f 12/12/5 9/13/5 16/14/5
f 9/13/6 1/15/6 16/14/6
f 10/16/7 15/17/7 1/15/7
f 10/16/8 7/18/8 15/17/8
f 16/19/9 15/20/9 1/21/9
f 8/6/10 5/22/10 14/7/10
f 20/2/11 17/4/11 11/11/11 12/23/11 16/24/11
f 18/25/12 2/26/12 19/8/12 14/7/12 5/22/12 6/27/12 13/28/12
f 6/29/13 3/30/13 13/31/13
f 3/30/14 4/32/14 17/33/14 18/34/14 13/31/14
f 4/35/15 3/36/15 6/37/15 5/38/15 8/39/15 7/40/15 10/41/15 9/42/15 12/43/15 11/44/15
f 9/13/16 10/16/16 1/15/16
f 19/45/17 2/46/17 20/47/17 16/14/17 1/15/17 15/17/17
